# Blender 4.3.2
# www.blender.org
mtllib window3.mtl
o Cube
v -0.385232 0.385232 -0.050000
v -0.385232 -0.385232 -0.050000
v 0.385232 0.385232 -0.050000
v 0.385232 -0.385232 -0.050000
v -0.385232 0.385232 0.100000
v -0.385232 -0.385232 0.100000
v 0.385232 0.385232 0.100000
v 0.385232 -0.385232 0.100000
v -0.500000 -0.500000 0.100000
v 0.500000 -0.500000 0.100000
v -0.500000 0.500000 -0.050000
v -0.500000 -0.500000 -0.050000
v 0.500000 0.500000 0.100000
v 0.500000 0.500000 -0.050000
v 0.500000 -0.500000 -0.050000
v -0.500000 0.500000 0.100000
v -0.385232 -0.385120 0.100000
v 0.385232 -0.385120 0.100000
v -0.385232 0.385344 -0.050000
v -0.385232 -0.385120 -0.050000
v 0.385232 0.385344 0.100000
v 0.385232 0.385344 -0.050000
v 0.385232 -0.385120 -0.050000
v -0.385232 0.385344 0.100000
vn -0.0000 1.0000 -0.0000
vn 1.0000 -0.0000 -0.0000
vn -0.0000 -1.0000 -0.0000
vn -0.0000 -0.0000 -1.0000
vn -1.0000 -0.0000 -0.0000
vn -0.0000 -0.0000 1.0000
vt 1.149016 0.996063
vt 0.998064 0.996063
vt 0.998064 -0.010287
vt 1.149016 -0.010287
vt 0.998064 2.002413
vt 0.998064 0.996063
vt 1.149016 0.996063
vt 1.149016 2.002413
vt 1.601986 0.765070
vt 1.299969 0.996063
vt 1.149016 -0.010287
vt 1.299969 -0.010287
vt 1.601986 -0.010287
vt 1.601874 0.765070
vt 1.601874 -0.010287
vt 1.299969 2.002413
vt 0.882567 0.880566
vt 0.882567 0.105209
vt 0.998064 -0.010287
vt 0.998064 0.996063
vt 0.107210 1.886917
vt 0.882567 1.886917
vt 0.998064 2.002413
vt -0.008287 2.002413
vt 0.107210 0.880566
vt -0.008287 0.996063
vt 0.882567 1.111560
vt 0.107210 1.111559
vt -0.008287 0.996063
vt 0.998064 0.996063
vt 0.107210 0.105209
vt -0.008287 -0.010287
vt 0.882454 0.880566
vt 0.882454 0.105209
vt 0.882454 1.886917
vt 0.882454 1.111560
vt 1.601986 0.765070
vt 1.601986 1.540427
vt 1.601874 1.540427
vt 1.601874 0.765070
vt 1.602099 0.765070
vt 1.299969 0.765070
vt 1.450921 -0.010287
vt 1.450921 0.765070
vt 1.299969 1.540427
vt 1.299969 0.765070
vt 1.450921 0.765070
vt 1.450921 1.540427
s 0
usemtl Material
f 11/1/1 16/2/1 13/3/1 14/4/1
f 15/5/2 14/6/2 13/7/2 10/8/2
f 5/9/1 6/9/1 17/9/1 24/9/1
f 9/10/3 12/7/3 15/11/3 10/12/3
f 7/13/4 5/9/4 24/14/4 21/15/4
f 9/8/5 16/7/5 11/10/5 12/16/5
f 8/17/6 6/18/6 9/19/6 10/20/6
f 1/21/4 2/22/4 12/23/4 11/24/4
f 7/25/6 8/17/6 10/20/6 13/26/6
f 4/27/4 3/28/4 14/29/4 15/30/4
f 6/18/6 5/31/6 16/32/6 9/19/6
f 3/28/4 1/21/4 11/24/4 14/29/4
f 5/31/6 7/25/6 13/26/6 16/32/6
f 2/22/4 4/27/4 15/30/4 12/23/4
f 8/9/1 7/9/1 21/9/1 18/9/1
f 6/18/6 8/17/6 18/33/6 17/34/6
f 4/27/4 2/22/4 20/35/4 23/36/4
f 1/37/6 3/38/6 22/39/6 19/40/6
f 3/37/1 4/37/1 23/37/1 22/37/1
f 2/9/1 1/9/1 19/9/1 20/9/1
f 7/9/1 18/9/1 21/9/1
f 7/41/6 21/9/6 24/13/6
f 20/42/2 19/12/2 24/43/2 17/44/2
f 19/45/3 22/46/3 21/47/3 24/48/3
f 22/15/5 23/14/5 18/44/5 21/43/5
f 23/40/1 20/39/1 17/48/1 18/47/1
o Cube.001
v -0.389585 -0.080000 0.111733
v -0.389585 0.080000 0.111733
v -0.389585 -0.080000 -0.048267
v -0.389585 0.080000 -0.048267
v 0.410415 -0.080000 0.111733
v 0.410415 0.080000 0.111733
v 0.410415 -0.080000 -0.048267
v 0.410415 0.080000 -0.048267
vn -1.0000 -0.0000 -0.0000
vn -0.0000 -0.0000 -1.0000
vn 1.0000 -0.0000 -0.0000
vn -0.0000 -0.0000 1.0000
vn -0.0000 -1.0000 -0.0000
vn -0.0000 1.0000 -0.0000
vt 0.375000 0.000000
vt 0.625000 0.000000
vt 0.625000 0.250000
vt 0.375000 0.250000
vt 0.625000 0.500000
vt 0.375000 0.500000
vt 0.625000 0.750000
vt 0.375000 0.750000
vt 0.625000 1.000000
vt 0.375000 1.000000
vt 0.125000 0.500000
vt 0.125000 0.750000
vt 0.875000 0.500000
vt 0.875000 0.750000
s 0
usemtl Material.001
f 25/49/7 26/50/7 28/51/7 27/52/7
f 27/52/8 28/51/8 32/53/8 31/54/8
f 31/54/9 32/53/9 30/55/9 29/56/9
f 29/56/10 30/55/10 26/57/10 25/58/10
f 27/59/11 31/54/11 29/56/11 25/60/11
f 32/53/12 28/61/12 26/62/12 30/55/12
