# Blender 4.3.2
# www.blender.org
mtllib window_shutter_sm.mtl
o Cube
v 0.500000 -0.407932 -0.006105
v 0.500000 -0.500000 -0.006105
v 0.500000 -0.407932 0.500000
v 0.500000 -0.500000 0.500000
v -0.500000 -0.407932 -0.006105
v -0.500000 -0.500000 -0.006105
v -0.500000 -0.407932 0.500000
v -0.500000 -0.500000 0.500000
vn -0.0000 1.0000 -0.0000
vn -0.0000 -0.0000 1.0000
vn -1.0000 -0.0000 -0.0000
vn -0.0000 -1.0000 -0.0000
vn 1.0000 -0.0000 -0.0000
vn -0.0000 -0.0000 -1.0000
vt 0.494337 0.032053
vt 0.494337 0.981542
vt 0.013796 0.981542
vt 0.013796 0.032053
vt 1.062296 0.981542
vt 0.974878 0.981542
vt 0.974878 0.032053
vt 1.062296 0.032053
vt 0.188632 1.462083
vt 0.101214 1.462083
vt 0.101214 0.981541
vt 0.188632 0.981542
vt 0.974878 0.032053
vt 0.974878 0.981542
vt 0.494337 0.981541
vt 0.494337 0.032053
vt 0.101214 1.462083
vt 0.013796 1.462083
vt 0.101214 0.981542
vt 1.149714 0.981542
vt 1.149714 0.032053
s 0
usemtl Material
f 1/1/1 5/2/1 7/3/1 3/4/1
f 4/5/2 3/6/2 7/7/2 8/8/2
f 8/9/3 7/10/3 5/11/3 6/12/3
f 6/13/4 2/14/4 4/15/4 8/16/4
f 2/17/5 1/18/5 3/3/5 4/19/5
f 6/20/6 5/5/6 1/8/6 2/21/6
o Cube.001
v 0.502253 -0.367725 0.429541
v 0.502253 -0.420000 0.429541
v 0.502253 -0.367725 0.494898
v 0.502253 -0.420000 0.494898
v -0.497747 -0.367725 0.429541
v -0.497747 -0.420000 0.429541
v -0.497747 -0.367725 0.494898
v -0.497747 -0.420000 0.494898
vn -0.0000 1.0000 -0.0000
vn -0.0000 -0.0000 1.0000
vn -1.0000 -0.0000 -0.0000
vn -0.0000 -1.0000 -0.0000
vn 1.0000 -0.0000 -0.0000
vn -0.0000 -0.0000 -1.0000
vt 1.211770 0.032053
vt 1.211770 0.981542
vt 1.149714 0.981542
vt 1.149714 0.032053
vt 1.447574 0.981542
vt 1.397938 0.981542
vt 1.397938 0.032053
vt 1.447574 0.032053
vt 0.933205 1.043597
vt 0.883570 1.043597
vt 0.883570 0.981541
vt 0.933205 0.981542
vt 1.273826 0.032053
vt 1.273826 0.981542
vt 1.211770 0.981542
vt 0.734665 1.043598
vt 0.685030 1.043598
vt 0.685030 0.981542
vt 0.734665 0.981542
vt 1.497208 0.981542
vt 1.497209 0.032053
s 0
usemtl Material
f 9/22/7 13/23/7 15/24/7 11/25/7
f 12/26/8 11/27/8 15/28/8 16/29/8
f 16/30/9 15/31/9 13/32/9 14/33/9
f 14/34/10 10/35/10 12/36/10 16/22/10
f 10/37/11 9/38/11 11/39/11 12/40/11
f 14/41/12 13/26/12 9/29/12 10/42/12
o Cube.002
v 0.500383 -0.370046 -0.012439
v 0.500383 -0.422322 -0.012439
v 0.500383 -0.370046 0.052918
v 0.500383 -0.422322 0.052918
v -0.499617 -0.370046 -0.012439
v -0.499617 -0.422322 -0.012439
v -0.499617 -0.370046 0.052918
v -0.499617 -0.422322 0.052918
vn -0.0000 1.0000 -0.0000
vn -0.0000 -0.0000 1.0000
vn -1.0000 -0.0000 -0.0000
vn -0.0000 -1.0000 -0.0000
vn 1.0000 -0.0000 -0.0000
vn -0.0000 -0.0000 -1.0000
vt 1.335882 0.032053
vt 1.335882 0.981542
vt 1.273826 0.981542
vt 1.273827 0.032053
vt 1.546844 0.981542
vt 1.497209 0.981542
vt 1.497209 0.032053
vt 1.546844 0.032053
vt 0.982840 1.043597
vt 0.933205 1.043597
vt 0.933205 0.981542
vt 0.982840 0.981542
vt 1.397938 0.032053
vt 1.397938 0.981542
vt 1.335883 0.032053
vt 0.784300 1.043598
vt 0.734665 1.043598
vt 0.734665 0.981542
vt 0.784300 0.981542
vt 1.596479 0.981542
vt 1.596479 0.032053
s 0
usemtl Material
f 17/43/13 21/44/13 23/45/13 19/46/13
f 20/47/14 19/48/14 23/49/14 24/50/14
f 24/51/15 23/52/15 21/53/15 22/54/15
f 22/55/16 18/56/16 20/44/16 24/57/16
f 18/58/17 17/59/17 19/60/17 20/61/17
f 22/62/18 21/47/18 17/50/18 18/63/18
o Cube.003
v 0.435109 -0.366644 -0.004611
v 0.435109 -0.418920 -0.004611
v 0.500467 -0.366644 -0.004611
v 0.500467 -0.418920 -0.004611
v 0.435110 -0.366644 0.498991
v 0.435110 -0.418920 0.498991
v 0.500467 -0.366644 0.498991
v 0.500467 -0.418920 0.498991
vn -0.0000 1.0000 -0.0000
vn 1.0000 -0.0000 -0.0000
vn -0.0000 -0.0000 1.0000
vn -0.0000 -1.0000 -0.0000
vn -0.0000 -0.0000 -1.0000
vn -1.0000 -0.0000 -0.0000
vt 0.188632 1.459705
vt 0.188632 0.981542
vt 0.250688 0.981542
vt 0.250688 1.459705
vt 0.486490 1.459705
vt 0.436855 1.459705
vt 0.436855 0.981542
vt 0.486490 0.981542
vt 0.883570 1.043597
vt 0.833935 1.043597
vt 0.833935 0.981541
vt 0.883570 0.981541
vt 0.250688 0.981541
vt 0.312743 0.981542
vt 0.312743 1.459705
vt 0.685030 1.043598
vt 0.635395 1.043598
vt 0.635395 0.981542
vt 0.685030 0.981542
vt 0.536125 1.459705
vt 0.486490 1.459705
vt 0.536125 0.981542
s 0
usemtl Material
f 25/64/19 29/65/19 31/66/19 27/67/19
f 28/68/20 27/69/20 31/70/20 32/71/20
f 32/72/21 31/73/21 29/74/21 30/75/21
f 30/67/22 26/76/22 28/77/22 32/78/22
f 26/79/23 25/80/23 27/81/23 28/82/23
f 30/83/24 29/84/24 25/71/24 26/85/24
o Cube.004
v -0.500767 -0.368673 0.001896
v -0.500767 -0.420948 0.001896
v -0.435410 -0.368673 0.001896
v -0.435410 -0.420948 0.001896
v -0.500767 -0.368673 0.500869
v -0.500767 -0.420948 0.500869
v -0.435410 -0.368673 0.500869
v -0.435410 -0.420948 0.500869
vn -0.0000 1.0000 -0.0000
vn 1.0000 -0.0000 -0.0000
vn -0.0000 -0.0000 1.0000
vn -0.0000 -1.0000 -0.0000
vn -0.0000 -0.0000 -1.0000
vn -1.0000 -0.0000 -0.0000
vt 0.312743 1.455310
vt 0.312743 0.981542
vt 0.374799 0.981542
vt 0.374799 1.455310
vt 0.585760 1.455310
vt 0.536125 1.455310
vt 0.536125 0.981542
vt 0.585760 0.981542
vt 1.032475 1.043597
vt 0.982840 1.043597
vt 0.982840 0.981542
vt 1.032475 0.981542
vt 0.374799 1.455310
vt 0.436855 0.981542
vt 0.436855 1.455310
vt 0.833935 1.043598
vt 0.784300 1.043598
vt 0.784300 0.981542
vt 0.833935 0.981542
vt 0.635395 1.455310
vt 0.585760 0.981542
vt 0.635395 0.981542
s 0
usemtl Material
f 33/86/25 37/87/25 39/88/25 35/89/25
f 36/90/26 35/91/26 39/92/26 40/93/26
f 40/94/27 39/95/27 37/96/27 38/97/27
f 38/98/28 34/88/28 36/99/28 40/100/28
f 34/101/29 33/102/29 35/103/29 36/104/29
f 38/105/30 37/90/30 33/106/30 34/107/30
