# Blender 4.3.2
# www.blender.org
mtllib window5.mtl
o Cube
v -0.385232 0.385232 -0.050000
v -0.385232 -0.385232 -0.050000
v 0.385232 0.385232 -0.050000
v 0.385232 -0.385232 -0.050000
v -0.385232 0.385232 0.100000
v -0.385232 -0.385232 0.100000
v 0.385232 0.385232 0.100000
v 0.385232 -0.385232 0.100000
v -0.500000 -0.500000 0.100000
v 0.500000 -0.500000 0.100000
v -0.500000 0.500000 -0.050000
v -0.500000 -0.500000 -0.050000
v 0.500000 0.500000 0.100000
v 0.500000 0.500000 -0.050000
v 0.500000 -0.500000 -0.050000
v -0.500000 0.500000 0.100000
v -0.385232 -0.385120 0.100000
v 0.385232 -0.385120 0.100000
v -0.385232 0.385344 -0.050000
v -0.385232 -0.385120 -0.050000
v 0.385232 0.385344 0.100000
v 0.385232 0.385344 -0.050000
v 0.385232 -0.385120 -0.050000
v -0.385232 0.385344 0.100000
vn -0.0000 1.0000 -0.0000
vn 1.0000 -0.0000 -0.0000
vn -0.0000 -1.0000 -0.0000
vn -0.0000 -0.0000 -1.0000
vn -1.0000 -0.0000 -0.0000
vn -0.0000 -0.0000 1.0000
vt 1.139322 0.989862
vt 0.992526 0.989862
vt 0.992526 0.011218
vt 1.139322 0.011218
vt 0.992526 1.968506
vt 0.992526 0.989862
vt 1.139322 0.989862
vt 1.139322 1.968506
vt 1.579821 0.765228
vt 1.286119 0.989862
vt 1.139322 0.011218
vt 1.286119 0.011218
vt 1.579821 0.011218
vt 1.579712 0.765228
vt 1.579712 0.011218
vt 1.286119 1.968506
vt 0.880209 0.877545
vt 0.880209 0.123535
vt 0.992526 0.011218
vt 0.992526 0.989862
vt 0.126198 1.856189
vt 0.880209 1.856189
vt 0.992525 1.968506
vt 0.013881 1.968506
vt 0.126198 0.877545
vt 0.013881 0.989862
vt 0.880209 1.102179
vt 0.126198 1.102179
vt 0.013881 0.989862
vt 0.992526 0.989862
vt 0.126198 0.123535
vt 0.013881 0.011218
vt 0.880099 0.877545
vt 0.880099 0.123535
vt 0.880099 1.856189
vt 0.880099 1.102179
vt 1.579821 0.765228
vt 1.579821 1.519239
vt 1.579712 1.519239
vt 1.579712 0.765228
vt 1.579821 0.765228
vt 1.579931 0.765228
vt 1.286119 0.765228
vt 1.432915 0.011218
vt 1.432915 0.765228
vt 1.286119 1.519239
vt 1.286119 0.765228
vt 1.432915 0.765228
vt 1.432915 1.519239
vt 1.579712 0.765228
s 0
usemtl Material
f 11/1/1 16/2/1 13/3/1 14/4/1
f 15/5/2 14/6/2 13/7/2 10/8/2
f 5/9/1 6/9/1 17/9/1 24/9/1
f 9/10/3 12/7/3 15/11/3 10/12/3
f 7/13/4 5/9/4 24/14/4 21/15/4
f 9/8/5 16/7/5 11/10/5 12/16/5
f 8/17/6 6/18/6 9/19/6 10/20/6
f 1/21/4 2/22/4 12/23/4 11/24/4
f 7/25/6 8/17/6 10/20/6 13/26/6
f 4/27/4 3/28/4 14/29/4 15/30/4
f 6/18/6 5/31/6 16/32/6 9/19/6
f 3/28/4 1/21/4 11/24/4 14/29/4
f 5/31/6 7/25/6 13/26/6 16/32/6
f 2/22/4 4/27/4 15/30/4 12/23/4
f 8/9/1 7/9/1 21/9/1 18/9/1
f 6/18/6 8/17/6 18/33/6 17/34/6
f 4/27/4 2/22/4 20/35/4 23/36/4
f 1/37/6 3/38/6 22/39/6 19/40/6
f 3/37/1 4/37/1 23/37/1 22/37/1
f 2/41/1 1/41/1 19/41/1 20/41/1
f 7/9/1 18/9/1 21/9/1
f 7/42/6 21/9/6 24/13/6
f 20/43/2 19/12/2 24/44/2 17/45/2
f 19/46/3 22/47/3 21/48/3 24/49/3
f 22/15/5 23/50/5 18/45/5 21/44/5
f 23/40/1 20/39/1 17/49/1 18/48/1
o Cube.002
v -0.068529 0.386912 0.108009
v 0.091471 0.386912 0.108009
v -0.068529 0.386912 -0.051991
v 0.091471 0.386912 -0.051991
v -0.068529 -0.413088 0.108009
v 0.091471 -0.413088 0.108009
v -0.068529 -0.413088 -0.051991
v 0.091471 -0.413088 -0.051991
vn -0.0000 1.0000 -0.0000
vn -0.0000 -0.0000 -1.0000
vn -0.0000 -1.0000 -0.0000
vn -0.0000 -0.0000 1.0000
vn -1.0000 -0.0000 -0.0000
vn 1.0000 -0.0000 -0.0000
vt 0.011498 2.944469
vt 0.986380 2.944469
vt 0.986380 3.919352
vt 0.011498 3.919351
vt 0.011498 1.969586
vt 0.986380 1.969586
vt 0.986380 2.944468
vt 0.011498 2.944468
vt -0.963385 2.944469
vt 0.011497 3.919352
vt -0.963385 3.919351
vt -0.963385 1.969586
vt 0.011497 1.969586
vt 0.011497 2.944468
vt -0.963385 2.944468
vt 0.011498 0.994703
vt 0.986380 0.994703
vt 0.986380 1.969586
vt -1.938268 3.919351
vt -1.938268 2.944469
vt -0.963385 3.919352
s 0
usemtl Material.001
f 25/51/7 26/52/7 28/53/7 27/54/7
f 27/55/8 28/56/8 32/57/8 31/58/8
f 31/59/9 32/51/9 30/60/9 29/61/9
f 29/62/10 30/63/10 26/64/10 25/65/10
f 27/55/11 31/66/11 29/67/11 25/68/11
f 32/69/12 28/70/12 26/59/12 30/71/12
