# Blender 4.3.2
# www.blender.org
mtllib window4.mtl
o Cube
v -0.385232 0.385232 -0.050000
v -0.385232 -0.385232 -0.050000
v 0.385232 0.385232 -0.050000
v 0.385232 -0.385232 -0.050000
v -0.385232 0.385232 0.100000
v -0.385232 -0.385232 0.100000
v 0.385232 0.385232 0.100000
v 0.385232 -0.385232 0.100000
v -0.500000 -0.500000 0.100000
v 0.500000 -0.500000 0.100000
v -0.500000 0.500000 -0.050000
v -0.500000 -0.500000 -0.050000
v 0.500000 0.500000 0.100000
v 0.500000 0.500000 -0.050000
v 0.500000 -0.500000 -0.050000
v -0.500000 0.500000 0.100000
v -0.385232 -0.385120 0.100000
v 0.385232 -0.385120 0.100000
v -0.385232 0.385344 -0.050000
v -0.385232 -0.385120 -0.050000
v 0.385232 0.385344 0.100000
v 0.385232 0.385344 -0.050000
v 0.385232 -0.385120 -0.050000
v -0.385232 0.385344 0.100000
vn -0.0000 1.0000 -0.0000
vn 1.0000 -0.0000 -0.0000
vn -0.0000 -1.0000 -0.0000
vn -0.0000 -0.0000 -1.0000
vn -1.0000 -0.0000 -0.0000
vn -0.0000 -0.0000 1.0000
vt -2.084500 0.994703
vt -1.938268 0.994703
vt -1.938268 1.969586
vt -2.084500 1.969586
vt -2.084501 0.994703
vt -2.084501 1.969586
vt -2.230733 1.969586
vt -2.230733 0.994703
vt 0.011498 1.969586
vt -2.376966 0.994703
vt -2.230733 0.994703
vt -2.230733 1.969586
vt -2.376966 1.969586
vt -2.669540 1.969586
vt -2.669540 1.218473
vt -2.669430 1.218473
vt -2.669430 1.969586
vt -2.523198 1.969586
vt -2.523198 0.994703
vt -1.826382 2.081471
vt -1.826382 2.832584
vt -1.938268 2.944468
vt -1.938268 1.969586
vt -0.100388 1.106588
vt -0.851500 1.106588
vt -0.963385 0.994703
vt 0.011497 0.994703
vt -1.075270 2.081471
vt -0.963385 1.969586
vt -0.851500 1.857701
vt -0.100388 1.857701
vt 0.011497 1.969586
vt -0.963385 1.969586
vt -1.075270 2.832584
vt -0.963385 2.944469
vt -1.826273 2.081471
vt -1.826273 2.832584
vt -0.851391 1.106588
vt -0.851391 1.857701
vt -2.669540 0.467361
vt -2.669430 0.467361
vt 0.011498 1.969586
vt -2.669649 1.218473
vt -2.523198 1.218473
vt -2.669430 1.969586
vt -2.523198 0.467361
vt -2.669430 0.467361
vt -2.084500 0.994703
vt -2.084500 0.243591
vt -1.938268 0.243591
vt -1.938268 0.994703
vt -2.230733 0.243591
vt -2.084500 0.243591
s 0
usemtl Material
f 11/1/1 16/2/1 13/3/1 14/4/1
f 15/5/2 14/6/2 13/7/2 10/8/2
f 5/9/1 6/9/1 17/9/1 24/9/1
f 9/10/3 12/11/3 15/12/3 10/13/3
f 7/14/4 5/15/4 24/16/4 21/17/4
f 9/10/5 16/13/5 11/18/5 12/19/5
f 8/20/6 6/21/6 9/22/6 10/23/6
f 1/24/4 2/25/4 12/26/4 11/27/4
f 7/28/6 8/20/6 10/23/6 13/29/6
f 4/30/4 3/31/4 14/32/4 15/33/4
f 6/21/6 5/34/6 16/35/6 9/22/6
f 3/31/4 1/24/4 11/27/4 14/32/4
f 5/34/6 7/28/6 13/29/6 16/35/6
f 2/25/4 4/30/4 15/33/4 12/26/4
f 8/9/1 7/9/1 21/9/1 18/9/1
f 6/21/6 8/20/6 18/36/6 17/37/6
f 4/30/4 2/25/4 20/38/4 23/39/4
f 1/15/6 3/40/6 22/41/6 19/16/6
f 3/42/1 4/42/1 23/42/1 22/42/1
f 2/9/1 1/9/1 19/9/1 20/9/1
f 7/9/1 18/9/1 21/9/1
f 7/43/6 21/15/6 24/14/6
f 20/44/2 19/18/2 24/45/2 17/16/2
f 19/46/3 22/44/3 21/16/3 24/47/3
f 22/48/5 23/49/5 18/50/5 21/51/5
f 23/8/1 20/52/1 17/53/1 18/1/1
o Cube.001
v -0.389585 -0.080000 0.111733
v -0.389585 0.080000 0.111733
v -0.389585 -0.080000 -0.048267
v -0.389585 0.080000 -0.048267
v 0.410415 -0.080000 0.111733
v 0.410415 0.080000 0.111733
v 0.410415 -0.080000 -0.048267
v 0.410415 0.080000 -0.048267
vn -1.0000 -0.0000 -0.0000
vn -0.0000 -0.0000 -1.0000
vn 1.0000 -0.0000 -0.0000
vn -0.0000 -0.0000 1.0000
vn -0.0000 -1.0000 -0.0000
vn -0.0000 1.0000 -0.0000
vt -1.938268 0.994703
vt -0.963385 0.994703
vt -0.963385 1.969586
vt -1.938268 1.969586
vt 0.011498 0.019820
vt 0.986380 0.019820
vt 0.986380 0.994703
vt 0.011498 0.994703
vt -2.913151 2.944469
vt -1.938268 2.944469
vt -1.938268 3.919352
vt -2.913151 3.919351
vt -0.963385 0.019820
vt 0.011497 0.994703
vt -0.963385 0.994703
vt -2.913151 2.944468
vt -2.913150 1.969586
vt -1.938268 2.944468
vt -1.938268 0.994703
vt -1.938268 0.019820
vt -0.963385 0.994703
s 0
usemtl Material.001
f 25/54/7 26/55/7 28/56/7 27/57/7
f 27/58/8 28/59/8 32/60/8 31/61/8
f 31/62/9 32/63/9 30/64/9 29/65/9
f 29/66/10 30/58/10 26/67/10 25/68/10
f 27/69/11 31/70/11 29/57/11 25/71/11
f 32/72/12 28/73/12 26/66/12 30/74/12
o Cube.002
v -0.068529 0.386912 0.108009
v 0.091471 0.386912 0.108009
v -0.068529 0.386912 -0.051991
v 0.091471 0.386912 -0.051991
v -0.068529 -0.413088 0.108009
v 0.091471 -0.413088 0.108009
v -0.068529 -0.413088 -0.051991
v 0.091471 -0.413088 -0.051991
vn -0.0000 1.0000 -0.0000
vn -0.0000 -0.0000 -1.0000
vn -0.0000 -1.0000 -0.0000
vn -0.0000 -0.0000 1.0000
vn -1.0000 -0.0000 -0.0000
vn 1.0000 -0.0000 -0.0000
vt 0.011498 2.944469
vt 0.986380 2.944469
vt 0.986380 3.919352
vt 0.011498 3.919351
vt 0.011498 1.969586
vt 0.986380 1.969586
vt 0.986380 2.944468
vt 0.011498 2.944468
vt -0.963385 2.944469
vt 0.011497 3.919352
vt -0.963385 3.919351
vt -0.963385 1.969586
vt 0.011497 1.969586
vt 0.011497 2.944468
vt -0.963385 2.944468
vt 0.011498 0.994703
vt 0.986380 0.994703
vt 0.986380 1.969586
vt -1.938268 3.919351
vt -1.938268 2.944469
vt -0.963385 3.919352
s 0
usemtl Material.001
f 33/75/13 34/76/13 36/77/13 35/78/13
f 35/79/14 36/80/14 40/81/14 39/82/14
f 39/83/15 40/75/15 38/84/15 37/85/15
f 37/86/16 38/87/16 34/88/16 33/89/16
f 35/79/17 39/90/17 37/91/17 33/92/17
f 40/93/18 36/94/18 34/83/18 38/95/18
